<svg width="660" height="126" viewBox="0 0 660 126" fill="none" xmlns="http://www.w3.org/2000/svg">
<path d="M20.48 107.864H0L13.184 33.3677L31.36 18.2637H75.392L72.448 34.9037H33.408L29.952 54.7437H62.976L60.16 71.3837H27.008L20.48 107.864Z" fill="#0F1729"/>
<path d="M82.847 18.1357H103.327L90.399 91.2237H130.079L127.135 107.864H66.975L82.847 18.1357Z" fill="#0F1729"/>
<path d="M216.141 18.2637L200.269 107.864H133.325L149.197 18.2637H169.677L156.749 91.2237H182.733L195.661 18.2637H216.141Z" fill="#0F1729"/>
<path d="M218.939 43.9917L223.547 18.2637H244.027L240.315 39.3837L250.299 51.1597L264.891 39.3837L268.603 18.2637H289.083L284.475 43.9917L261.307 63.0637L277.819 82.1357L273.211 107.864H252.731L256.443 86.7437L246.203 74.9677L231.867 86.7437L228.155 107.864H207.675L212.283 82.1357L235.323 63.0637L218.939 43.9917Z" fill="#0F1729"/>
<path d="M280.65 107.864L296.522 18.2637H317.002L301.13 107.864H280.65Z" fill="#0F1729"/>
<path d="M308.5 107.864L324.372 18.2637H391.316L375.444 107.864H308.5ZM331.924 91.2237H357.908L367.892 34.9037H341.908L331.924 91.2237Z" fill="#0F1729"/>
<path d="M382.85 107.864L398.722 18.2637H419.202L436.354 68.3117L445.186 18.2637H465.666L449.794 107.864H429.314L412.162 57.8157L403.33 107.864H382.85Z" fill="#0F1729"/>
<path d="M557.401 12.6893C557.225 12.5873 557.03 12.5343 556.833 12.5349L468.896 12.7858C467.607 12.7895 467.189 14.7378 468.334 15.4036L494.152 30.4119C494.328 30.514 494.522 30.567 494.72 30.5664L582.656 30.3095C583.945 30.3057 584.363 28.3573 583.217 27.6917L557.401 12.6893Z" fill="#1A68DB"/>
<path d="M634.55 94.5885C634.369 94.4773 634.165 94.4193 633.959 94.4199L550.673 94.6706C549.398 94.6744 548.968 96.5882 550.087 97.2742L574.559 112.269C574.741 112.38 574.945 112.438 575.151 112.438L658.436 112.181C659.711 112.177 660.141 110.263 659.021 109.577L634.55 94.5885Z" fill="#1A68DB"/>
<path d="M494.401 58.9137C494.402 59.2389 494.504 59.5534 494.69 59.8023L543.741 125.503C544.481 126.494 545.918 125.903 545.915 124.608L545.856 96.5131C545.856 96.1879 545.754 95.8734 545.568 95.6245L496.517 29.9239C495.776 28.9324 494.34 29.5238 494.343 30.819L494.401 58.9137Z" fill="#1A68DB"/>
<path d="M582.458 29.4806C582.458 29.8057 582.56 30.1202 582.746 30.3692L631.797 96.0697C632.538 97.0612 633.974 96.4698 633.971 95.1747L633.913 67.0863C633.912 66.7611 633.81 66.4466 633.624 66.1977L584.573 0.497097C583.833 -0.494406 582.396 0.0970043 582.399 1.39218L582.458 29.4806Z" fill="#1A68DB"/>
</svg>
